# xmcd
#
# Track frame offsets: 
#        150
#        13851
#        23689
#        40135
#        55638
#        69339
#        79752
#        94963
#        106677
#        116482
#        132932
#        156240
#
# Disc length: 2360 seconds
#
# Revision: 0
# Processed by: cddbd v1.5.2PL0 Copyright (c) Steve Scherf et al.
# Submitted via: ExactAudioCopy v0.95b4
#
DISCID=8e09360c
DTITLE=Doug Cox and Todd Butler - Dobro and Guitar
DYEAR=2004
DGENRE=Folk
TTITLE0=Super Eight
TTITLE1=Getting Ready
TTITLE2=If You Were Her
TTITLE3=Onoway
TTITLE4=Prayer for Air
TTITLE5=Redneck Flower
TTITLE6=East of Dopyera
TTITLE7=Daughter
TTITLE8=Thumbs of China
TTITLE9=Louise
TTITLE10=More Musta
TTITLE11=Closing Credits
EXTD=
EXTT0=
EXTT1=
EXTT2=
EXTT3=
EXTT4=
EXTT5=
EXTT6=
EXTT7=
EXTT8=
EXTT9=
EXTT10=
EXTT11=
PLAYORDER=
